<?xml version="1.0" encoding="UTF-8"?>
<svg width="7px" height="7px" viewBox="0 0 7 7" version="1.1" xmlns="http://www.w3.org/2000/svg" xmlns:xlink="http://www.w3.org/1999/xlink">
    <!-- Generator: Sketch 50.2 (55047) - http://www.bohemiancoding.com/sketch -->
    <title>Rectangle</title>
    <desc>Created with Sketch.</desc>
    <defs></defs>
    <g id="Page-1" stroke="none" stroke-width="1" fill="none" fill-rule="evenodd">
        <path d="M2.5638852,5.67398348e-14 L5.70710678,5.30686606e-14 C6.42115199,5.29374926e-14 7,0.578848011 7,1.29289322 C7,1.63578982 6.86378486,1.96464227 6.62132034,2.20710678 L2.20710678,6.62132034 C1.70220057,7.12622655 0.883585865,7.12622655 0.378679656,6.62132034 C0.136215144,6.37885583 8.67789245e-14,6.05000338 8.70414851e-14,5.70710678 L8.53341843e-14,2.5638852 C8.52250048e-14,1.67236646 0.0928256111,1.34908022 0.267132704,1.0231543 C0.441439796,0.697228371 0.697228371,0.441439796 1.0231543,0.267132704 C1.34908022,0.0928256111 1.67236646,5.69036042e-14 2.5638852,5.67398348e-14 Z" id="Rectangle" fill="#333333"></path>
    </g>
</svg>